# xmcd
#
# Track frame offsets:
#	150
#	13900
#	26663
#	40580
#	52954
#	69245
#	83569
#	101088
#	115023
#	128653
#	142654
#	157193
#	170643
#	181153
#	193847
#	207617
#	220981
#	234293
#	246909
#	259139
#	271470
#	284115
#	297727
#
# Disc length: 4149 seconds
# Revision: 3
# Processed by: cddbd v1.5.2PL0 Copyright (c) Steve Scherf et al.
# Submitted via: dBpowerAMP V12.0
#
DISCID=5c103317
DTITLE=John Lee Hooker - Vol.2 - Detroit 1949
DYEAR=2003
DGENRE=Blues
TTITLE0=We Gonna Make Everything Alright
TTITLE1=Low Down Boogie
TTITLE2=Must I Wait Til Your Man Is Gone
TTITLE3=Cotton Pickin' Boogie
TTITLE4=Roll My Baby
TTITLE5=Wayne Country Ramblin' Blues
TTITLE6=Grievin' Blues
TTITLE7=Miss Rosie Mae
TTITLE8=Miss Rosie Mae
TTITLE9=Highway Blues
TTITLE10=Whistlin' and Moanin'
TTITLE11=Hoogie Boogie
TTITLE12=Hastings Street Boogie
TTITLE13=My Own Boogie
TTITLE14=Snap Them Fingers Boogie
TTITLE15=Build Myself a Cave
TTITLE16=Momma Poppa Boogie
TTITLE17=Graveyard Blues
TTITLE18=Miss Eloise
TTITLE19=Burnin' Hell
TTITLE20=Sailin' Blues
TTITLE21=Black Cat Blues
TTITLE22=I Had a Dream
EXTD=
EXTT0=
EXTT1=
EXTT2=
EXTT3=
EXTT4=
EXTT5=
EXTT6=
EXTT7=
EXTT8=
EXTT9=
EXTT10=
EXTT11=
EXTT12=
EXTT13=
EXTT14=
EXTT15=
EXTT16=
EXTT17=
EXTT18=
EXTT19=
EXTT20=
EXTT21=
EXTT22=
PLAYORDER=
